<svg width="40" height="65" viewBox="0 0 40 65" fill="none" xmlns="http://www.w3.org/2000/svg">
<rect x="5.99999" y="59.4117" width="37.4117" height="28" transform="rotate(-90 5.99999 59.4117)" fill="url(#paint0_linear_69_1025)"/>
<path d="M5.99999 22H34C34 8.65416 28.4 5.79434 23.7333 4.84106C20 4.07845 23.7333 0.789648 20.9333 0.0746918C18.1333 -0.640265 19.5933 3.99164 16.2667 4.84106C12.5333 5.79434 5.99999 8.65416 5.99999 22Z" fill="url(#paint1_linear_69_1025)"/>
<path d="M5.97626 64.0077L19.3661 63.9037C23.1917 63.874 31.6142 63.8086 36.3817 61.8975C43.8939 58.8862 36.9218 52.9565 34.0994 55.7646C31.277 58.5727 29.35 56.4172 26.4807 56.4395C23.6115 56.4618 24.0973 57.3077 21.2281 57.33C19.0895 57.3466 17.2098 56.4242 13.3841 56.4539C10.1863 56.4787 7.65319 57.4353 5.91804 56.5119C2.44729 54.6647 -0.769468 57.5008 0.216055 61.2413C0.933128 63.9629 3.81773 64.0245 5.97626 64.0077Z" fill="#FFDC91"/>
<defs>
<linearGradient id="paint0_linear_69_1025" x1="24.7059" y1="59.4117" x2="24.7059" y2="87.4117" gradientUnits="userSpaceOnUse">
<stop stop-color="#FFF4DB"/>
<stop offset="1" stop-color="#FEE5A0"/>
</linearGradient>
<linearGradient id="paint1_linear_69_1025" x1="5.99999" y1="11" x2="34" y2="11" gradientUnits="userSpaceOnUse">
<stop stop-color="#FFF4DB"/>
<stop offset="1" stop-color="#FEE5A0"/>
</linearGradient>
</defs>
</svg>
