<svg width="41" height="149" viewBox="0 0 41 149" fill="none" xmlns="http://www.w3.org/2000/svg">
<rect x="6.59613" y="143" width="121" height="28" transform="rotate(-90 6.59613 143)" fill="url(#paint0_linear_69_1030)"/>
<path d="M6.59613 22H34.5961C34.5961 8.65416 28.9961 5.79434 24.3295 4.84106C20.5961 4.07845 24.3295 0.789648 21.5295 0.0746918C18.7295 -0.640265 20.1894 3.99164 16.8628 4.84106C13.1295 5.79434 6.59613 8.65416 6.59613 22Z" fill="url(#paint1_linear_69_1030)"/>
<path d="M6.57239 148.008L19.9622 147.904C23.7879 147.874 32.2103 147.809 36.9779 145.897C44.49 142.886 37.5179 136.957 34.6955 139.765C31.8732 142.573 29.9461 140.417 27.0768 140.439C24.2076 140.462 24.6935 141.308 21.8242 141.33C19.6856 141.347 17.8059 140.424 13.9802 140.454C10.7824 140.479 8.24931 141.435 6.51417 140.512C3.04342 138.665 -0.173339 141.501 0.812184 145.241C1.52926 147.963 4.41386 148.024 6.57239 148.008Z" fill="#FFDC91"/>
<defs>
<linearGradient id="paint0_linear_69_1030" x1="67.0961" y1="143" x2="67.0961" y2="171" gradientUnits="userSpaceOnUse">
<stop stop-color="#FFF4DB"/>
<stop offset="1" stop-color="#FEE5A0"/>
</linearGradient>
<linearGradient id="paint1_linear_69_1030" x1="6.59613" y1="11" x2="34.5961" y2="11" gradientUnits="userSpaceOnUse">
<stop stop-color="#FFF4DB"/>
<stop offset="1" stop-color="#FEE5A0"/>
</linearGradient>
</defs>
</svg>
