<svg width="1280" height="39" viewBox="0 0 1280 39" fill="none" xmlns="http://www.w3.org/2000/svg">
<path d="M-10 37H19.5M49 37H19.5M19.5 37V11.2106M19.5 11.2106H-4.46875V29.6316H12.125V20.4211H2.90625M19.5 11.2106H43.4688V29.6316H28.7188V20.4211H36.0938" stroke="#DAA520" stroke-width="4"/>
<path d="M-10 2H49" stroke="#DAA520" stroke-width="4"/>
<path d="M49 37H78.5M108 37H78.5M78.5 37V11.2106M78.5 11.2106H54.5312V29.6316H71.125V20.4211H61.9062M78.5 11.2106H102.469V29.6316H87.7188V20.4211H95.0938" stroke="#DAA520" stroke-width="4"/>
<path d="M49 2H108" stroke="#DAA520" stroke-width="4"/>
<path d="M108 37H137.5M167 37H137.5M137.5 37V11.2106M137.5 11.2106H113.531V29.6316H130.125V20.4211H120.906M137.5 11.2106H161.469V29.6316H146.719V20.4211H154.094" stroke="#DAA520" stroke-width="4"/>
<path d="M108 2H167" stroke="#DAA520" stroke-width="4"/>
<path d="M167 37H196.5M226 37H196.5M196.5 37V11.2106M196.5 11.2106H172.531V29.6316H189.125V20.4211H179.906M196.5 11.2106H220.469V29.6316H205.719V20.4211H213.094" stroke="#DAA520" stroke-width="4"/>
<path d="M167 2H226" stroke="#DAA520" stroke-width="4"/>
<path d="M226 37H255.5M285 37H255.5M255.5 37V11.2106M255.5 11.2106H231.531V29.6316H248.125V20.4211H238.906M255.5 11.2106H279.469V29.6316H264.719V20.4211H272.094" stroke="#DAA520" stroke-width="4"/>
<path d="M226 2H285" stroke="#DAA520" stroke-width="4"/>
<path d="M285 37H314.5M344 37H314.5M314.5 37V11.2106M314.5 11.2106H290.531V29.6316H307.125V20.4211H297.906M314.5 11.2106H338.469V29.6316H323.719V20.4211H331.094" stroke="#DAA520" stroke-width="4"/>
<path d="M285 2H344" stroke="#DAA520" stroke-width="4"/>
<path d="M344 37H373.5M403 37H373.5M373.5 37V11.2106M373.5 11.2106H349.531V29.6316H366.125V20.4211H356.906M373.5 11.2106H397.469V29.6316H382.719V20.4211H390.094" stroke="#DAA520" stroke-width="4"/>
<path d="M344 2H403" stroke="#DAA520" stroke-width="4"/>
<path d="M403 37H432.5M462 37H432.5M432.5 37V11.2106M432.5 11.2106H408.531V29.6316H425.125V20.4211H415.906M432.5 11.2106H456.469V29.6316H441.719V20.4211H449.094" stroke="#DAA520" stroke-width="4"/>
<path d="M403 2H462" stroke="#DAA520" stroke-width="4"/>
<path d="M462 37H491.5M521 37H491.5M491.5 37V11.2106M491.5 11.2106H467.531V29.6316H484.125V20.4211H474.906M491.5 11.2106H515.469V29.6316H500.719V20.4211H508.094" stroke="#DAA520" stroke-width="4"/>
<path d="M462 2H521" stroke="#DAA520" stroke-width="4"/>
<path d="M521 37H550.5M580 37H550.5M550.5 37V11.2106M550.5 11.2106H526.531V29.6316H543.125V20.4211H533.906M550.5 11.2106H574.469V29.6316H559.719V20.4211H567.094" stroke="#DAA520" stroke-width="4"/>
<path d="M521 2H580" stroke="#DAA520" stroke-width="4"/>
<path d="M580 37H609.5M639 37H609.5M609.5 37V11.2106M609.5 11.2106H585.531V29.6316H602.125V20.4211H592.906M609.5 11.2106H633.469V29.6316H618.719V20.4211H626.094" stroke="#DAA520" stroke-width="4"/>
<path d="M580 2H639" stroke="#DAA520" stroke-width="4"/>
<path d="M639 37H668.5M698 37H668.5M668.5 37V11.2106M668.5 11.2106H644.531V29.6316H661.125V20.4211H651.906M668.5 11.2106H692.469V29.6316H677.719V20.4211H685.094" stroke="#DAA520" stroke-width="4"/>
<path d="M639 2H698" stroke="#DAA520" stroke-width="4"/>
<path d="M698 37H727.5M757 37H727.5M727.5 37V11.2106M727.5 11.2106H703.531V29.6316H720.125V20.4211H710.906M727.5 11.2106H751.469V29.6316H736.719V20.4211H744.094" stroke="#DAA520" stroke-width="4"/>
<path d="M698 2H757" stroke="#DAA520" stroke-width="4"/>
<path d="M757 37H786.5M816 37H786.5M786.5 37V11.2106M786.5 11.2106H762.531V29.6316H779.125V20.4211H769.906M786.5 11.2106H810.469V29.6316H795.719V20.4211H803.094" stroke="#DAA520" stroke-width="4"/>
<path d="M757 2H816" stroke="#DAA520" stroke-width="4"/>
<path d="M816 37H845.5M875 37H845.5M845.5 37V11.2106M845.5 11.2106H821.531V29.6316H838.125V20.4211H828.906M845.5 11.2106H869.469V29.6316H854.719V20.4211H862.094" stroke="#DAA520" stroke-width="4"/>
<path d="M816 2H875" stroke="#DAA520" stroke-width="4"/>
<path d="M875 37H904.5M934 37H904.5M904.5 37V11.2106M904.5 11.2106H880.531V29.6316H897.125V20.4211H887.906M904.5 11.2106H928.469V29.6316H913.719V20.4211H921.094" stroke="#DAA520" stroke-width="4"/>
<path d="M875 2H934" stroke="#DAA520" stroke-width="4"/>
<path d="M934 37H963.5M993 37H963.5M963.5 37V11.2106M963.5 11.2106H939.531V29.6316H956.125V20.4211H946.906M963.5 11.2106H987.469V29.6316H972.719V20.4211H980.094" stroke="#DAA520" stroke-width="4"/>
<path d="M934 2H993" stroke="#DAA520" stroke-width="4"/>
<path d="M993 37H1022.5M1052 37H1022.5M1022.5 37V11.2106M1022.5 11.2106H998.531V29.6316H1015.12V20.4211H1005.91M1022.5 11.2106H1046.47V29.6316H1031.72V20.4211H1039.09" stroke="#DAA520" stroke-width="4"/>
<path d="M993 2H1052" stroke="#DAA520" stroke-width="4"/>
<path d="M1052 37H1081.5M1111 37H1081.5M1081.5 37V11.2106M1081.5 11.2106H1057.53V29.6316H1074.12V20.4211H1064.91M1081.5 11.2106H1105.47V29.6316H1090.72V20.4211H1098.09" stroke="#DAA520" stroke-width="4"/>
<path d="M1052 2H1111" stroke="#DAA520" stroke-width="4"/>
<path d="M1111 37H1140.5M1170 37H1140.5M1140.5 37V11.2106M1140.5 11.2106H1116.53V29.6316H1133.12V20.4211H1123.91M1140.5 11.2106H1164.47V29.6316H1149.72V20.4211H1157.09" stroke="#DAA520" stroke-width="4"/>
<path d="M1111 2H1170" stroke="#DAA520" stroke-width="4"/>
<path d="M1170 37H1199.5M1229 37H1199.5M1199.5 37V11.2106M1199.5 11.2106H1175.53V29.6316H1192.12V20.4211H1182.91M1199.5 11.2106H1223.47V29.6316H1208.72V20.4211H1216.09" stroke="#DAA520" stroke-width="4"/>
<path d="M1170 2H1229" stroke="#DAA520" stroke-width="4"/>
<path d="M1229 37H1258.5M1288 37H1258.5M1258.5 37V11.2106M1258.5 11.2106H1234.53V29.6316H1251.12V20.4211H1241.91M1258.5 11.2106H1282.47V29.6316H1267.72V20.4211H1275.09" stroke="#DAA520" stroke-width="4"/>
<path d="M1229 2H1288" stroke="#DAA520" stroke-width="4"/>
</svg>
