<svg width="27" height="26" viewBox="0 0 27 26" fill="none" xmlns="http://www.w3.org/2000/svg">
<path d="M12.5248 3.39144C12.8238 2.53129 12.9733 2.10123 13.1944 1.98204C13.3857 1.87887 13.616 1.87887 13.8074 1.98204C14.0284 2.10123 14.1779 2.53129 14.4769 3.39144L16.4535 9.07786C16.5387 9.32267 16.5812 9.44507 16.6579 9.53622C16.7256 9.61674 16.812 9.67951 16.9095 9.71903C17.0198 9.76379 17.1494 9.76642 17.4085 9.7717L23.4274 9.89436C24.3379 9.91291 24.7931 9.9222 24.9748 10.0956C25.132 10.2457 25.2032 10.4648 25.1642 10.6786C25.1192 10.9257 24.7564 11.2007 24.0307 11.751L19.2333 15.3879C19.0268 15.5446 18.9236 15.6229 18.8606 15.7239C18.8049 15.8133 18.772 15.9148 18.7645 16.0197C18.7561 16.1385 18.7935 16.2625 18.8686 16.5106L20.6119 22.2729C20.8756 23.1445 21.0074 23.5803 20.8987 23.8066C20.8045 24.0026 20.6181 24.1379 20.4027 24.167C20.1538 24.2005 19.7801 23.9404 19.0326 23.4203L14.0911 19.9817C13.8783 19.8337 13.772 19.7597 13.6564 19.7309C13.5543 19.7056 13.4474 19.7056 13.3454 19.7309C13.2298 19.7597 13.1234 19.8337 12.9106 19.9817L7.96917 23.4203C7.22171 23.9404 6.84798 24.2005 6.59907 24.167C6.38366 24.1379 6.19727 24.0026 6.10312 23.8066C5.99434 23.5803 6.12619 23.1445 6.38989 22.2729L8.13318 16.5106C8.20823 16.2625 8.24575 16.1385 8.23731 16.0197C8.22984 15.9148 8.19685 15.8133 8.14119 15.7239C8.0782 15.6229 7.97493 15.5446 7.7684 15.3879L2.9711 11.751C2.24544 11.2007 1.88262 10.9257 1.83758 10.6786C1.79858 10.4648 1.86978 10.2457 2.02701 10.0956C2.20867 9.9222 2.66389 9.91292 3.57432 9.89436L9.59325 9.7717C9.85235 9.76642 9.98192 9.76379 10.0923 9.71903C10.1898 9.67951 10.2762 9.61674 10.3439 9.53622C10.4206 9.44507 10.4631 9.32267 10.5482 9.07786L12.5248 3.39144Z" fill="#DAA520" stroke="#DAA520" stroke-width="3" stroke-linecap="round" stroke-linejoin="round"/>
</svg>
