<svg width="64" height="64" viewBox="0 0 64 64" fill="none" xmlns="http://www.w3.org/2000/svg">
<path fill-rule="evenodd" clip-rule="evenodd" d="M55.9223 14.2915H8.69897V26.0973C11.9591 26.0973 14.6019 28.7402 14.6019 32.0002C14.6019 35.2603 11.9591 37.9032 8.69897 37.9032V49.709H55.9223V37.9032C52.6621 37.9032 50.0194 35.2603 50.0194 32.0002C50.0194 28.7402 52.6621 26.0973 55.9223 26.0973V14.2915ZM32.3106 37.9032C35.5707 37.9032 38.2135 35.2603 38.2135 32.0002C38.2135 28.7402 35.5707 26.0973 32.3106 26.0973C29.0505 26.0973 26.4077 28.7402 26.4077 32.0002C26.4077 35.2603 29.0505 37.9032 32.3106 37.9032Z" fill="#DAA520"/>
</svg>
