<svg width="64" height="65" viewBox="0 0 64 65" fill="none" xmlns="http://www.w3.org/2000/svg">
<path fill-rule="evenodd" clip-rule="evenodd" d="M43.0226 32.3815L43.0226 35.236C44.323 35.6956 45.5123 36.3905 46.5394 37.2694L49.014 35.8407L52.7177 42.2557L50.2447 43.6836C50.3664 44.3422 50.43 45.0211 50.43 45.7148C50.43 46.4086 50.3664 47.0876 50.2447 47.7461L52.7177 49.174L49.014 55.589L46.5394 54.1603C45.5123 55.0392 44.323 55.734 43.0226 56.1937L43.0226 59.0482H35.6152L35.6151 56.1937C34.3147 55.7341 33.1255 55.0393 32.0984 54.1604L29.6237 55.589L25.92 49.174L28.393 47.7461C28.2713 47.0876 28.2077 46.4086 28.2077 45.7148C28.2077 45.021 28.2713 44.3421 28.393 43.6835L25.92 42.2557L29.6237 35.8407L32.0983 37.2694C33.1254 36.3905 34.3147 35.6957 35.6151 35.236L35.6152 32.3815H43.0226ZM25.3333 29.7148C27.7627 29.7148 30.0475 30.3513 32.0388 31.4709C26.8699 34.1231 23.3333 39.506 23.3333 45.7148C23.3333 48.6291 24.1125 51.3614 25.4738 53.7148L2 53.7149V44.1148C2 36.3608 7.95853 30.0381 15.4229 29.7269L16 29.7148H25.3333ZM39.3189 41.2704C36.8643 41.2704 34.8744 43.2603 34.8744 45.7148C34.8744 48.1694 36.8643 50.1593 39.3189 50.1593C41.7735 50.1593 43.7633 48.1694 43.7633 45.7148C43.7633 43.2603 41.7735 41.2704 39.3189 41.2704ZM20.6667 5.71484C25.8213 5.71484 30 9.89352 30 15.0482C30 20.031 26.0953 24.1019 21.1788 24.3677L20.6667 24.3815C15.512 24.3815 11.3333 20.2028 11.3333 15.0482C11.3333 10.0653 15.2381 5.99451 20.1546 5.72865L20.6667 5.71484Z" fill="#DAA520"/>
</svg>
