<svg width="23" height="29" viewBox="0 0 23 29" fill="none" xmlns="http://www.w3.org/2000/svg">
<path fill-rule="evenodd" clip-rule="evenodd" d="M12.4116 0.0625H10.5884C9.1185 0.0625 8.53963 0.18625 7.947 0.43375C7.353 0.682625 6.858 1.05662 6.4565 1.56125C6.055 2.06312 5.77863 2.587 5.3785 4.0005L5.131 4.875H1.875C1.51033 4.875 1.16059 5.01987 0.902728 5.27773C0.644866 5.53559 0.5 5.88533 0.5 6.25C0.5 6.61467 0.644866 6.96441 0.902728 7.22227C1.16059 7.48013 1.51033 7.625 1.875 7.625H2.64913L3.61575 23.0938C3.7285 24.9088 3.78487 25.8163 4.17537 26.5051C4.51858 27.1114 5.03789 27.599 5.6645 27.9035C6.37538 28.25 7.28563 28.25 9.10475 28.25H13.8952C15.7144 28.25 16.6246 28.25 17.3355 27.9035C17.9621 27.599 18.4814 27.1114 18.8246 26.5051C19.2151 25.8176 19.2715 24.9101 19.3842 23.0924L20.3509 7.625H21.125C21.4897 7.625 21.8394 7.48013 22.0973 7.22227C22.3551 6.96441 22.5 6.61467 22.5 6.25C22.5 5.88533 22.3551 5.53559 22.0973 5.27773C21.8394 5.01987 21.4897 4.875 21.125 4.875H17.8704L17.6229 4.0005C17.2214 2.587 16.945 2.06312 16.5435 1.55988C16.151 1.06333 15.6379 0.675625 15.053 0.43375C14.4604 0.18625 13.8801 0.0625 12.4116 0.0625ZM15.0104 4.875L14.976 4.75125C14.6969 3.76537 14.5773 3.50688 14.393 3.2745C14.2887 3.13918 14.1501 3.03426 13.9915 2.97062C13.7165 2.85512 13.436 2.8125 12.4116 2.8125H10.5884C9.564 2.8125 9.28212 2.85512 9.0085 2.97062C8.84994 3.03426 8.71131 3.13918 8.607 3.2745C8.42137 3.50688 8.30313 3.76537 8.024 4.75125L7.98825 4.875H15.0104ZM8.21375 9.69575C8.0783 9.70036 7.94508 9.73163 7.82173 9.78777C7.69837 9.8439 7.58729 9.9238 7.49483 10.0229C7.40237 10.122 7.33036 10.2383 7.2829 10.3653C7.23544 10.4922 7.21347 10.6273 7.21825 10.7627L7.62662 22.4434C7.63873 22.715 7.75759 22.9708 7.95734 23.1552C8.1571 23.3396 8.4216 23.4377 8.69329 23.4281C8.96498 23.4185 9.22189 23.302 9.40813 23.1039C9.59437 22.9059 9.69486 22.6423 9.68775 22.3705L9.27938 10.6912C9.27005 10.4179 9.15255 10.1595 8.95271 9.97283C8.75287 9.78614 8.48707 9.68647 8.21375 9.69575ZM13.7248 10.6912C13.7373 10.4201 13.8562 10.1648 14.0557 9.98074C14.2553 9.7967 14.5194 9.69876 14.7907 9.70817C15.062 9.71758 15.3186 9.83358 15.5049 10.031C15.6912 10.2284 15.7922 10.4914 15.7859 10.7627L15.3775 22.4434C15.3654 22.715 15.2465 22.9708 15.0468 23.1552C14.847 23.3396 14.5825 23.4377 14.3108 23.4281C14.0391 23.4185 13.7822 23.302 13.596 23.1039C13.4098 22.9059 13.3093 22.6423 13.3164 22.3705L13.7248 10.6912Z" fill="#DAA520"/>
</svg>
