<svg width="477" height="477" viewBox="0 0 477 477" fill="none" xmlns="http://www.w3.org/2000/svg">
<path fill-rule="evenodd" clip-rule="evenodd" d="M3 3H43.5231V13.6831H17.6832H13.6832V17.6831V43.5231H3V3ZM13.6832 46.5231H3H0V43.5231V3V0H3H43.5231H46.5231V3V13.6831H70.1532V2.73655V1.73655H71.1532H405.025H406.025V2.73655V13.6831H429.655V3V0H432.655H473.178H476.178V3V43.5231V46.5231H473.178H462.494V70.1529H473.441H474.441V71.1529V405.025V406.025H473.441H462.494V429.655H473.178H476.178V432.655V473.178V476.178H473.178H432.655H429.655V473.178V462.494H403.288V473.441V474.441H402.288H71.1532H70.1532V473.441V462.494H46.5231V473.178V476.178H43.5231H3H0V473.178V432.655V429.655H3H13.6832V406.025H2.7368H1.7368V405.025V71.1529V70.1529H2.7368H13.6832V46.5231ZM13.6832 72.1529H3.7368V404.025H13.6832V72.1529ZM17.6832 404.025V72.1529H34.5768V404.025H17.6832ZM17.6832 406.025V429.655H43.5231H46.5231V432.655V458.494H70.1532V441.601H57.47H56.47V440.601V419.708H35.5768H34.5768V418.708V406.025H17.6832ZM36.5768 406.025V417.708H57.47H58.47V418.708V439.601H70.1532V406.025H36.5768ZM72.1532 441.601V458.494H401.288V441.601H72.1532ZM401.288 439.601H72.1532V405.025V404.025H71.1532H36.5768V72.1529H71.1532H72.1532V71.1529V36.5763H404.025V71.1529V72.1529H405.025H439.602V404.025H402.288H401.288V405.025V439.601ZM403.288 441.601V458.494H429.655V432.655V429.655H432.655H458.494V406.025H441.602V415.971V416.971H440.602H416.972V440.601V441.601H415.972H403.288ZM439.602 406.025V414.971H415.972H414.972V415.971V439.601H403.288V406.025H439.602ZM441.602 404.025H458.494V72.1529H441.602V404.025ZM441.602 70.1529H458.494V46.5231H432.655H429.655V43.5231V17.6831H406.025V34.5763H418.708H419.708V35.5763V56.4696H440.602H441.602V57.4696V70.1529ZM406.025 36.5763V70.1529H439.602V58.4696H418.708H417.708V57.4696V36.5763H406.025ZM404.025 34.5763V17.6831H72.1532V34.5763H404.025ZM70.1532 34.5763V17.6831H46.5231V43.5231V46.5231H43.5231H17.6832V70.1529H34.5768V57.4696V56.4696H35.5768H56.47V35.5763V34.5763H57.47H70.1532ZM36.5768 70.1529H70.1532V36.5763H58.47V57.4696V58.4696H57.47H36.5768V70.1529ZM72.1532 13.6831H404.025V3.73655H72.1532V13.6831ZM462.494 72.1529V404.025H472.441V72.1529H462.494ZM401.288 462.494H72.1532V472.441H401.288V462.494ZM432.655 432.655V458.494H458.494V432.655H432.655ZM458.494 462.494H432.655V473.178H473.178V432.655H462.494V458.494V462.494H458.494ZM462.494 43.5231H473.178V3H432.655V13.6831H458.494H462.494V17.6831V43.5231ZM432.655 17.6831H458.494V43.5231H432.655V17.6831ZM43.5231 432.655H17.6832V458.494H43.5231V432.655ZM13.6832 458.494V432.655H3V473.178H43.5231V462.494H17.6832H13.6832V458.494ZM43.5231 17.6831V43.5231H17.6832V17.6831H43.5231Z" fill="#DAA520"/>
</svg>
