<svg width="105" height="111" viewBox="0 0 105 111" fill="none" xmlns="http://www.w3.org/2000/svg">
<path d="M102.739 9.14936L99.9682 6.0747L97.1977 3.00003L94.4272 6.07469L91.6567 9.14936L88.8862 6.0747L86.1156 3.00003L83.3451 6.0747L80.5746 9.14936L77.8041 6.0747L75.0336 3.00003L72.263 6.0747L69.4925 9.14936L66.722 6.0747L63.9515 3.00003L61.1809 6.0747L58.4104 9.14936L55.6399 6.0747L52.8694 3.00003L50.0989 6.0747L47.3283 9.14936L44.5578 6.0747L41.7873 3.00003L39.0168 6.0747L36.2463 9.14936L33.4757 6.0747L30.7052 3.00003L27.9347 6.0747L25.1642 9.14936L22.3936 6.0747L19.6231 3.00003L16.8526 6.0747L14.0821 9.14936L11.3116 6.0747L8.54104 3.00003L5.77052 6.0747L3 9.14934" stroke="#FBFBFB" stroke-width="3"/>
<path d="M2 102L4.77052 105.075L7.54104 108.149L10.3116 105.075L13.0821 102L15.8526 105.075L18.6231 108.149L21.3937 105.075L24.1642 102L26.9347 105.075L29.7052 108.149L32.4757 105.075L35.2463 102L38.0168 105.075L40.7873 108.149L43.5578 105.075L46.3283 102L49.0989 105.075L51.8694 108.149L54.6399 105.075L57.4104 102L60.1809 105.075L62.9515 108.149L65.722 105.075L68.4925 102L71.263 105.075L74.0336 108.149L76.8041 105.075L79.5746 102L82.3451 105.075L85.1156 108.149L87.8862 105.075L90.6567 102L93.4272 105.075L96.1977 108.149L98.9682 105.075L101.739 102" stroke="#FBFBFB" stroke-width="3"/>
<path d="M3 5.69876H102.739H3ZM102.739 105.438H3H102.739ZM7 105.438C3.96243 105.438 1.5 102.975 1.5 99.9375V11.1988C1.5 8.16119 3.96243 5.69876 7 5.69876C5.61929 5.69876 4.5 7.48962 4.5 9.69876V101.438C4.5 103.647 5.61929 105.438 7 105.438ZM98.7388 5.69876C101.776 5.69876 104.239 8.16119 104.239 11.1988V99.9375C104.239 102.975 101.776 105.438 98.7388 105.438C100.119 105.438 101.239 103.647 101.239 101.438V9.69876C101.239 7.48962 100.119 5.69876 98.7388 5.69876Z" fill="#FBFBFB"/>
<circle cx="52.4975" cy="55.1962" r="37.5881" stroke="#FBFBFB" stroke-width="3"/>
<path d="M61.425 43.6601V38.78C61.425 37.8006 60.4969 37 59.3614 37H31.0636C29.9281 37 29 37.8006 29 38.78V66.1271C29 67.1065 29.9281 67.9071 31.0636 67.9071H33.4333C33.532 71.2967 36.6817 73.9625 40.6311 73.9625C44.4818 73.9625 47.7303 71.2882 47.829 67.9071H60.6055C60.7042 71.2967 63.8539 73.9625 67.8033 73.9625C71.6935 73.9625 74.9617 71.2456 75.0111 67.8134C75.0111 67.8134 77.2129 68.0434 77.3807 65.9483V54.1356C77.3807 50.7034 74.8728 42.5103 61.425 43.6601ZM73.3622 54.5785H61.425V47.2115C72.9277 46.2577 73.1943 52.7729 73.3622 54.5785ZM67.8033 61.5281C65.2461 61.5281 63.0245 62.6438 61.7508 64.3471H61.425V58.1299H73.3622V63.7595C72.049 62.3968 70.0545 61.5281 67.8033 61.5281ZM33.0186 40.4663H57.3077V64.3471H46.6837C45.41 62.6438 43.1884 61.5281 40.6311 61.5281C38.0739 61.5281 35.8523 62.6438 34.5786 64.3471H33.0186V40.4663ZM40.6311 70.4962C38.8835 70.4962 37.4419 69.2527 37.4419 67.7453C37.4419 66.2378 38.8835 64.9944 40.6311 64.9944C42.3788 64.9944 43.8203 66.2378 43.8203 67.7453C43.8203 69.2527 42.3788 70.4962 40.6311 70.4962ZM67.8033 70.4962C66.0557 70.4962 64.6142 69.2527 64.6142 67.7453C64.6142 66.2378 66.0557 64.9944 67.8033 64.9944C69.551 64.9944 70.8938 66.2378 70.9925 67.7453C71.0024 69.2527 69.5608 70.4962 67.8033 70.4962Z" fill="#DAA520"/>
</svg>
