<svg width="64" height="64" viewBox="0 0 64 64" fill="none" xmlns="http://www.w3.org/2000/svg">
<path d="M47.6536 24.2329H45.9805V34.796H47.6536C48.7884 34.796 49.7086 33.8576 49.7086 32.7002V26.3294C49.7085 25.1714 48.7884 24.2329 47.6536 24.2329Z" fill="#DAA520"/>
<path d="M46.658 11.8057H44.3281H17.9633C16.2785 11.8057 14.9126 13.1788 14.9126 14.8719V49.1273C14.9126 50.821 16.2785 52.194 17.9633 52.194H41.2773C42.9621 52.194 44.328 50.821 44.328 49.1273V22.6242H47.5732C48.7525 22.6242 49.7087 21.6635 49.7087 20.478V14.8719C49.7087 13.1788 48.3429 11.8057 46.658 11.8057ZM29.5738 43.0647C23.8798 43.0647 19.9676 42.3215 19.9076 41.6076C19.6593 38.6242 23.5026 37.0336 25.0636 36.4803C25.8225 36.2127 27.1122 35.2526 27.1122 34.6853C27.1122 34.3083 27.1122 33.8373 27.1122 33.1933C26.6285 32.6558 26.2642 31.5621 26.0479 30.3248C25.5389 30.1423 25.2492 29.8504 24.8887 28.5776C24.5177 27.2732 25.3909 27.2653 25.4598 27.2653C25.3387 26.4331 25.1723 24.7873 25.6056 23.9596C25.6056 23.9596 25.3096 23.4232 25.3096 22.7077C26.5539 22.8863 30.5261 20.3243 31.7126 22.409C33.4316 22.2315 34.4573 24.6701 33.6777 27.2653C33.6777 27.2653 34.6428 27.2197 34.2566 28.5776C33.894 29.8504 33.6059 30.1422 33.0981 30.3248C32.8807 31.5622 32.5169 32.6558 32.0349 33.1933C32.0349 33.8373 32.0349 34.3083 32.0349 34.6853C32.0349 35.2526 33.2484 36.1677 34.0802 36.4803C35.6338 37.0652 39.4855 38.6242 39.2383 41.6076C39.1778 42.3214 35.265 43.0647 29.5738 43.0647Z" fill="#DAA520"/>
</svg>
