<svg width="30" height="30" viewBox="0 0 30 30" fill="none" xmlns="http://www.w3.org/2000/svg">
<path d="M29.4506 8.04938L21.9506 0.549385C21.2184 -0.182803 20.0316 -0.182803 19.2994 0.549385C18.5672 1.28157 18.5672 2.46845 19.2994 3.20063L26.7994 10.7006C27.1655 11.0667 27.6455 11.25 28.125 11.25C28.6045 11.25 29.0845 11.0667 29.4506 10.7006C30.1833 9.96845 30.1833 8.78157 29.4506 8.04938Z" fill="#231F20"/>
<path d="M16.3256 4.29937C15.9741 3.94781 15.4978 3.75 15 3.75H5.625C4.70766 3.75 3.92578 4.41281 3.77578 5.3175L0 27.1875L9.51422 17.8345C9.43359 17.527 9.375 17.2083 9.375 16.875C9.375 14.8078 11.0578 13.125 13.125 13.125C15.1922 13.125 16.875 14.8078 16.875 16.875C16.875 18.9422 15.1922 20.625 13.125 20.625C12.7917 20.625 12.4748 20.5664 12.1655 20.4858L2.8125 30L24.6825 26.2242C25.5872 26.0742 26.25 25.2923 26.25 24.375V15C26.25 14.5022 26.0522 14.0259 25.7006 13.6744L16.3256 4.29937Z" fill="#231F20"/>
</svg>
