<svg width="50" height="58" viewBox="0 0 50 58" fill="none" xmlns="http://www.w3.org/2000/svg">
<path d="M1.97857 36.1556H1.85C1.39785 36.1567 0.962102 35.9861 0.630678 35.678C0.299255 35.37 0.0968374 34.9475 0.0642845 34.4958C0.0249987 33.8626 0 33.2223 0 32.5785C0 32.1041 0.188136 31.6492 0.523022 31.3138C0.857909 30.9784 1.31211 30.7899 1.78571 30.7899C2.25932 30.7899 2.71352 30.9784 3.04841 31.3138C3.38329 31.6492 3.57143 32.1041 3.57143 32.5785C3.57143 33.1365 3.59643 33.6909 3.63571 34.2382C3.65322 34.4732 3.62418 34.7094 3.55028 34.9331C3.47637 35.1569 3.35905 35.3638 3.20506 35.5419C3.05107 35.7201 2.86344 35.866 2.65296 35.9713C2.44248 36.0766 2.21329 36.1393 1.97857 36.1556ZM5.52857 41.5534C5.33046 41.1228 4.96976 40.7887 4.52576 40.6243C4.08175 40.46 3.59077 40.4789 3.16072 40.677C2.73082 40.8755 2.39717 41.2367 2.2331 41.6814C2.06902 42.1261 2.08795 42.6179 2.28571 43.0486C2.90359 44.3903 3.63859 45.6747 4.48214 46.8869C4.64703 47.1225 4.86623 47.3148 5.12115 47.4474C5.37606 47.58 5.65917 47.6491 5.94643 47.6488C6.31199 47.6501 6.6689 47.5376 6.96786 47.3269C7.16211 47.1924 7.3278 47.0207 7.45536 46.8217C7.58292 46.6227 7.66981 46.4003 7.71099 46.1674C7.75218 45.9346 7.74685 45.6958 7.69531 45.465C7.64376 45.2342 7.54703 45.016 7.41072 44.8229C6.68736 43.7901 6.05748 42.6983 5.52857 41.5534ZM16.0143 52.0701C14.8676 51.5407 13.7704 50.9098 12.7357 50.185C12.5431 50.0483 12.3254 49.9511 12.0951 49.8992C11.8648 49.8473 11.6266 49.8417 11.3941 49.8826C11.1616 49.9235 10.9395 50.0102 10.7407 50.1376C10.5419 50.265 10.3702 50.4307 10.2357 50.625C10.099 50.8176 10.0019 51.0355 9.94976 51.266C9.89767 51.4965 9.89171 51.7351 9.93223 51.9679C9.97274 52.2008 10.0589 52.4233 10.1858 52.6225C10.3127 52.8218 10.4777 52.9939 10.6714 53.1289C11.8812 53.9776 13.165 54.7151 14.5071 55.3324C14.7407 55.4419 14.9957 55.4981 15.2536 55.497C15.5949 55.4968 15.929 55.3987 16.2164 55.2142C16.5038 55.0297 16.7323 54.7666 16.875 54.456C16.9762 54.2427 17.0342 54.0114 17.0456 53.7755C17.0571 53.5396 17.0218 53.3038 16.9418 53.0816C16.8617 52.8595 16.7386 52.6554 16.5794 52.4812C16.4202 52.3069 16.2281 52.166 16.0143 52.0665V52.0701ZM25 7.53875H23.9536L28.05 3.43939C28.2163 3.27325 28.3482 3.07588 28.4383 2.85859C28.5283 2.6413 28.5746 2.40835 28.5746 2.1731C28.5746 1.93784 28.5283 1.70489 28.4383 1.4876C28.3482 1.27031 28.2163 1.07294 28.05 0.906802C27.8841 0.74024 27.6871 0.608092 27.4701 0.517926C27.2532 0.42776 27.0206 0.381348 26.7857 0.381348C26.5508 0.381348 26.3183 0.42776 26.1013 0.517926C25.8844 0.608092 25.6873 0.74024 25.5214 0.906802L18.3786 8.06101C18.2129 8.22877 18.0808 8.42667 17.9893 8.64408C17.8106 9.08199 17.8106 9.57261 17.9893 10.0105C18.0808 10.2279 18.2129 10.4258 18.3786 10.5936L25.5214 17.7478C25.6876 17.9138 25.8847 18.0453 26.1017 18.135C26.3186 18.2246 26.5511 18.2705 26.7857 18.2701C27.0204 18.2705 27.2528 18.2246 27.4698 18.135C27.6867 18.0453 27.8839 17.9138 28.05 17.7478C28.2163 17.5817 28.3482 17.3843 28.4383 17.167C28.5283 16.9497 28.5746 16.7168 28.5746 16.4815C28.5746 16.2463 28.5283 16.0133 28.4383 15.796C28.3482 15.5787 28.2163 15.3814 28.05 15.2152L23.9536 11.1159H25C30.6815 11.1215 36.1286 13.3846 40.146 17.4084C44.1634 21.4322 46.4229 26.888 46.4286 32.5785C46.4229 38.269 44.1634 43.7248 40.146 47.7486C36.1286 51.7723 30.6815 54.0354 25 54.0411C24.4464 54.0411 23.8929 54.0196 23.35 53.9767C22.8818 53.9558 22.4233 54.1143 22.0677 54.42C21.7121 54.7256 21.4861 55.1555 21.4357 55.6222C21.3993 56.0951 21.5519 56.5632 21.86 56.9234C22.1681 57.2836 22.6064 57.5065 23.0786 57.5431C23.7143 57.5931 24.3536 57.6182 25 57.6182C31.6281 57.6106 37.9825 54.9701 42.6693 50.2759C47.3561 45.5816 49.9924 39.2171 50 32.5785C49.9924 25.9398 47.3561 19.5753 42.6693 14.8811C37.9825 10.1869 31.6281 7.54632 25 7.53875ZM21.95 42.7875C22.1161 42.9535 22.3133 43.0851 22.5302 43.1747C22.7472 43.2643 22.9796 43.3102 23.2143 43.3098C23.4489 43.3102 23.6814 43.2643 23.8983 43.1747C24.1153 43.0851 24.3124 42.9535 24.4786 42.7875L38.7643 28.4791C38.9306 28.313 39.0625 28.1156 39.1525 27.8983C39.2426 27.681 39.2889 27.4481 39.2889 27.2128C39.2889 26.9776 39.2426 26.7446 39.1525 26.5273C39.0625 26.31 38.9306 26.1127 38.7643 25.9465C38.5984 25.78 38.4014 25.6478 38.1844 25.5576C37.9675 25.4675 37.7349 25.4211 37.5 25.4211C37.2651 25.4211 37.0325 25.4675 36.8156 25.5576C36.5986 25.6478 36.4016 25.78 36.2357 25.9465L23.2143 38.9922L17.3357 33.1007C17.1698 32.9342 16.9728 32.802 16.7558 32.7118C16.5389 32.6217 16.3063 32.5753 16.0714 32.5753C15.8365 32.5753 15.604 32.6217 15.387 32.7118C15.1701 32.802 14.973 32.9342 14.8071 33.1007C14.6408 33.2669 14.5089 33.4642 14.4189 33.6815C14.3289 33.8988 14.2825 34.1318 14.2825 34.367C14.2825 34.6023 14.3289 34.8352 14.4189 35.0525C14.5089 35.2698 14.6408 35.4672 14.8071 35.6333L21.95 42.7875Z" fill="#DAA520"/>
</svg>
