<svg width="64" height="64" viewBox="0 0 64 64" fill="none" xmlns="http://www.w3.org/2000/svg">
<path fill-rule="evenodd" clip-rule="evenodd" d="M32 20.9903C29.3832 20.9903 27.2622 23.1026 27.2622 25.7087C27.2622 28.3149 29.3832 30.4272 32 30.4272C34.6169 30.4272 36.7379 28.3149 36.7379 25.7087C36.7379 23.1026 34.6169 20.9903 32 20.9903ZM32 33.5728C27.6396 33.5728 24.1036 30.0529 24.1036 25.7087C24.1036 21.3646 27.6396 17.8447 32 17.8447C36.3605 17.8447 39.8965 21.3646 39.8965 25.7087C39.8965 30.0529 36.3605 33.5728 32 33.5728ZM32 6.83496C21.5341 6.83496 13.0486 15.2857 13.0486 25.7087C13.0486 33.6011 28.8494 57.1823 32 57.165C35.1018 57.1823 50.9515 33.4942 50.9515 25.7087C50.9515 15.2857 42.466 6.83496 32 6.83496Z" fill="#DAA520"/>
</svg>
