<svg width="839" height="133" viewBox="0 0 839 133" fill="none" xmlns="http://www.w3.org/2000/svg">
<path d="M112.218 73.7115L114.165 100.489C111.923 104.272 108.796 107.7 104.784 110.774C100.772 113.73 95.8751 116.094 90.0931 117.868C84.3111 119.641 77.5851 120.528 69.9151 120.528C56.6991 120.409 45.3121 118.163 35.7541 113.789C26.1961 109.415 18.8211 103.149 13.6291 94.9915C8.55507 86.716 6.01807 76.6671 6.01807 64.8448C6.01807 53.2591 8.55507 43.3875 13.6291 35.2302C18.7031 26.9546 26.0191 20.6297 35.5771 16.2555C45.1351 11.7631 56.5811 9.51685 69.9151 9.51685C77.9391 9.51685 85.3731 10.2853 92.2171 11.8222C99.1791 13.3591 104.961 15.3097 109.563 17.6742L109.74 45.8702H108.324C105.374 34.9937 100.713 27.3684 94.3411 22.9942C87.9691 18.62 80.4171 16.4328 71.6851 16.4328C63.0711 16.4328 55.8731 18.4426 50.0911 22.4622C44.4271 26.4817 36.12 32.0973 33.17 39.3088C30.338 46.5204 28.92 54.9733 28.92 64.6675C28.92 74.4799 30.338 82.992 33.17 90.2035C36.12 97.4151 44.3681 103.031 49.9141 107.05C55.4601 111.07 62.1271 113.198 69.9151 113.434C78.2931 113.434 85.1961 112.134 90.6241 109.533C96.1701 106.932 100.536 102.735 103.722 96.9422C107.026 91.1493 109.386 83.4057 110.802 73.7115H112.218Z" fill="#DAA520"/>
<path d="M74.9573 99.8616L73.3431 117.5L50.3402 109H38.637C43.0761 102.246 39.4441 88.7367 39.4441 88.7367C39.4441 88.7367 38.637 82.3795 34.6015 78.4062C30.5661 74.433 30.9695 72.0491 30.9695 72.0491V68.4732L30.1624 67.2813L29.7587 59.7322C29.7587 59.7322 25.8506 51.7858 27.3375 47.8125C30.1624 40.2634 32.8752 40.4083 37.4264 36.6875C41.8656 27.1518 53.9723 26.7545 55.5865 27.1518C57.1492 24.8156 57.2008 24.3706 55.9901 20C57.2008 20.7947 61.2364 22.7813 61.2364 24.3705C62.0435 23.9732 63.6577 23.5759 65.2719 24.3705C65.9031 24.1595 66.3885 23.0382 67.6933 22.7812C69.7111 22.3839 72.9395 22.7812 72.9395 22.7812C72.9395 22.7812 77.3787 24.7679 77.7822 28.3438C78.1858 27.9464 78.9929 27.5491 79.3965 27.5491C81.0107 27.9464 83.432 29.933 87.4676 31.5223C90.243 30.2579 89.4854 23.9732 89.4854 23.9732C89.4854 23.9732 93.1174 26.3571 93.521 30.7277C95.1352 31.5223 100.381 34.7009 99.9779 39.0714C99.9779 42.6473 96.7495 43.8393 96.7495 43.8393C96.7495 43.8393 99.1708 47.8125 98.3637 49.7991C96.7495 50.9911 91.0997 49.7991 91.0997 49.7991C91.0997 49.7991 92.7139 54.1696 93.521 56.9509C93.1174 58.9375 91.5032 61.3214 89.4854 63.308C89.889 67.2813 92.7139 74.433 92.7139 74.433C92.7139 74.433 95.5387 79.9956 95.1352 80.7902C93.9014 82.8702 90.6961 80.7902 89.0819 82.3795C89.3509 83.7039 89.9697 86.4321 90.2925 86.75C90.6961 87.1473 90.2925 87.1473 89.889 87.942C89.4854 88.7366 90.6961 89.5312 89.4854 89.9286C87.5333 90.5692 85.8534 97.4777 85.8534 97.875C85.8534 98.2723 84.2392 99.4643 83.0285 99.8616C82.7056 100.179 77.2442 97.0804 74.5538 95.4911L74.9573 99.8616Z" fill="#FBFBFB"/>
<path fill-rule="evenodd" clip-rule="evenodd" d="M114.165 100.489L112.218 73.7115H110.802C109.386 83.4057 107.026 91.1493 103.722 96.9422C100.536 102.735 96.1701 106.932 90.6241 109.533C85.1961 112.134 78.2931 113.434 69.9151 113.434C62.1271 113.198 55.4601 111.07 49.9141 107.05C49.5757 106.805 49.2272 106.554 48.8705 106.297C43.3812 102.339 35.94 96.975 33.17 90.2035C30.338 82.992 28.92 74.4799 28.92 64.6675L6.01807 64.8448C6.01807 76.6671 8.55507 86.716 13.6291 94.9915C18.8211 103.149 26.1961 109.415 35.7541 113.789C45.3121 118.163 56.6991 120.409 69.9151 120.528C77.5851 120.528 84.3111 119.641 90.0931 117.868C95.8751 116.094 100.772 113.73 104.784 110.774C108.796 107.7 111.923 104.272 114.165 100.489Z" fill="#DAA520"/>
<path d="M176.618 21.9551L221.566 119.059H196.824L168.233 48.2031L176.618 21.9551ZM147.065 109.947C146.332 111.76 146.194 113.302 146.652 114.571C147.11 115.84 147.889 116.838 148.989 117.563C150.089 118.198 151.188 118.515 152.288 118.515H153.525V119.875H124.109V118.515C124.109 118.515 124.338 118.515 124.797 118.515C125.163 118.515 125.346 118.515 125.346 118.515C127.454 118.515 129.608 117.88 131.807 116.611C134.098 115.251 135.976 113.03 137.443 109.947H147.065ZM176.618 21.9551L177.168 38.5471L143.078 119.467H133.044L168.645 39.7711C168.92 39.2271 169.378 38.2298 170.02 36.7791C170.753 35.2378 171.486 33.5151 172.219 31.6111C173.044 29.7071 173.777 27.8938 174.418 26.1711C175.06 24.3577 175.381 22.9524 175.381 21.9551H176.618ZM191.051 87.5071V93.2191H150.638V87.5071H191.051ZM193.112 109.947H217.167C218.725 113.03 220.604 115.251 222.803 116.611C225.002 117.88 227.156 118.515 229.264 118.515C229.264 118.515 229.447 118.515 229.813 118.515C230.18 118.515 230.363 118.515 230.363 118.515V119.875H186.652V118.515H187.889C189.722 118.515 191.326 117.79 192.7 116.339C194.075 114.798 194.212 112.667 193.112 109.947ZM262.089 24.6751H278.584C286.464 24.6751 292.832 25.8084 297.69 28.0751C302.638 30.3417 306.302 33.4698 308.686 37.4591C311.161 41.3578 312.488 45.8003 312.673 50.7871C312.855 55.4111 312.076 59.6271 310.336 63.4351C308.594 67.2431 306.212 70.4163 303.188 72.9551C300.164 75.4938 296.681 77.3523 292.742 78.5311C288.893 79.6191 284.859 79.8911 280.645 79.3471C276.522 78.7123 272.488 77.1258 268.549 74.5871V73.2271C268.549 73.2271 269.099 73.2271 270.199 73.2271C271.389 73.2271 272.855 73.0458 274.597 72.6831C276.429 72.3203 278.309 71.6403 280.233 70.6431C282.248 69.6458 284.127 68.1043 285.869 66.0191C287.608 63.9338 288.938 61.1683 289.855 57.7231C290.22 56.5443 290.45 55.2298 290.542 53.7791C290.725 52.2378 290.77 50.8323 290.68 49.5631C290.587 43.7603 288.983 39.1364 285.869 35.6911C282.845 32.1551 278.536 30.3871 272.948 30.3871H263.463C263.463 30.3871 263.326 29.9337 263.051 29.0271C262.866 28.0297 262.639 27.0778 262.364 26.1711C262.179 25.1737 262.089 24.6751 262.089 24.6751ZM263.876 24.6751V119.875H243.257V24.6751H263.876ZM243.667 109.947V119.875H232.672V118.515C232.764 118.515 233.039 118.515 233.497 118.515C234.047 118.515 234.367 118.515 234.459 118.515C236.841 118.515 238.858 117.699 240.508 116.067C242.248 114.344 243.165 112.304 243.257 109.947H243.667ZM243.667 34.6031H243.257C243.257 32.2457 242.385 30.2511 240.646 28.6191C238.903 26.8964 236.841 26.0351 234.459 26.0351C234.367 26.0351 234.092 26.0351 233.634 26.0351C233.176 26.0351 232.901 26.0351 232.809 26.0351L232.672 24.6751H243.667V34.6031ZM263.463 109.947H263.876C263.966 112.304 264.838 114.344 266.487 116.067C268.227 117.699 270.289 118.515 272.673 118.515C272.763 118.515 273.038 118.515 273.498 118.515C274.047 118.515 274.367 118.515 274.46 118.515V119.875H263.463V109.947ZM378.925 22.7711C389.921 22.7711 399.451 24.8111 407.516 28.8911C415.671 32.8804 421.948 38.5471 426.347 45.8911C430.838 53.2351 433.082 62.0298 433.082 72.2751C433.082 82.4298 430.838 91.2243 426.347 98.6591C421.948 106.003 415.671 111.715 407.516 115.795C399.451 119.784 389.921 121.779 378.925 121.779C367.928 121.779 358.351 119.784 350.196 115.795C342.131 111.715 335.901 106.003 331.502 98.6591C327.103 91.3151 324.904 82.5203 324.904 72.2751C324.904 62.1203 327.103 53.3711 331.502 46.0271C335.901 38.5924 342.131 32.8804 350.196 28.8911C358.351 24.8111 367.928 22.7711 378.925 22.7711ZM378.925 116.067C385.43 116.067 391.021 114.299 395.694 110.763C400.368 107.136 403.987 102.059 406.553 95.5311C409.12 89.0031 410.402 81.2511 410.402 72.2751C410.402 63.2991 409.12 55.5471 406.553 49.0191C403.987 42.4911 400.368 37.4591 395.694 33.9231C391.021 30.2964 385.43 28.4831 378.925 28.4831C372.509 28.4831 366.921 30.2964 362.155 33.9231C357.481 37.4591 353.862 42.4911 351.296 49.0191C348.729 55.5471 347.447 63.2991 347.447 72.2751C347.447 81.2511 348.729 89.0031 351.296 95.5311C353.862 102.059 357.481 107.136 362.155 110.763C366.921 114.299 372.509 116.067 378.925 116.067ZM473.271 24.6751V119.875H452.653V24.6751H473.271ZM509.56 114.027L512.859 119.875H472.859V114.027H509.56ZM519.594 91.9951L513.271 119.875H486.33L491.278 114.027C495.859 114.027 499.893 113.166 503.374 111.443C506.856 109.63 509.835 107.091 512.309 103.827C514.783 100.472 516.753 96.5283 518.219 91.9951H519.594ZM453.065 109.947V119.875H442.069V118.515C442.069 118.515 442.344 118.515 442.893 118.515C443.536 118.515 443.856 118.515 443.856 118.515C446.237 118.515 448.254 117.699 449.904 116.067C451.645 114.344 452.56 112.304 452.653 109.947H453.065ZM453.065 34.6031H452.653C452.56 32.2457 451.645 30.2511 449.904 28.6191C448.254 26.8964 446.237 26.0351 443.856 26.0351C443.856 26.0351 443.536 26.0351 442.893 26.0351C442.344 26.0351 442.069 26.0351 442.069 26.0351V24.6751H453.065V34.6031ZM472.859 34.6031V24.6751H483.855V26.0351C483.763 26.0351 483.443 26.0351 482.893 26.0351C482.343 26.0351 482.068 26.0351 482.068 26.0351C479.687 26.0351 477.625 26.8964 475.883 28.6191C474.233 30.2511 473.364 32.2457 473.271 34.6031H472.859ZM557.302 24.6751V119.875H536.684V24.6751H557.302ZM593.591 114.027L596.89 119.875H556.89V114.027H593.591ZM603.625 91.9951L597.302 119.875H570.361L575.309 114.027C579.89 114.027 583.924 113.166 587.405 111.443C590.887 109.63 593.866 107.091 596.34 103.827C598.814 100.472 600.784 96.5283 602.251 91.9951H603.625ZM537.096 109.947V119.875H526.1V118.515C526.1 118.515 526.375 118.515 526.924 118.515C527.567 118.515 527.887 118.515 527.887 118.515C530.268 118.515 532.285 117.699 533.935 116.067C535.676 114.344 536.591 112.304 536.684 109.947H537.096ZM537.096 34.6031H536.684C536.591 32.2457 535.676 30.2511 533.935 28.6191C532.285 26.8964 530.268 26.0351 527.887 26.0351C527.887 26.0351 527.567 26.0351 526.924 26.0351C526.375 26.0351 526.1 26.0351 526.1 26.0351V24.6751H537.096V34.6031ZM556.89 34.6031V24.6751H567.886V26.0351C567.794 26.0351 567.474 26.0351 566.924 26.0351C566.374 26.0351 566.099 26.0351 566.099 26.0351C563.718 26.0351 561.656 26.8964 559.914 28.6191C558.264 30.2511 557.395 32.2457 557.302 34.6031H556.89ZM664.845 22.7711C675.841 22.7711 685.371 24.8111 693.436 28.8911C701.591 32.8804 707.869 38.5471 712.267 45.8911C716.758 53.2351 719.003 62.0298 719.003 72.2751C719.003 82.4298 716.758 91.2243 712.267 98.6591C707.869 106.003 701.591 111.715 693.436 115.795C685.371 119.784 675.841 121.779 664.845 121.779C653.848 121.779 644.271 119.784 636.116 115.795C628.052 111.715 621.821 106.003 617.422 98.6591C613.024 91.3151 610.824 82.5203 610.824 72.2751C610.824 62.1203 613.024 53.3711 617.422 46.0271C621.821 38.5924 628.052 32.8804 636.116 28.8911C644.271 24.8111 653.848 22.7711 664.845 22.7711ZM664.845 116.067C671.35 116.067 676.941 114.299 681.614 110.763C686.288 107.136 689.907 102.059 692.474 95.5311C695.04 89.0031 696.322 81.2511 696.322 72.2751C696.322 63.2991 695.04 55.5471 692.474 49.0191C689.907 42.4911 686.288 37.4591 681.614 33.9231C676.941 30.2964 671.35 28.4831 664.845 28.4831C658.429 28.4831 652.841 30.2964 648.075 33.9231C643.402 37.4591 639.783 42.4911 637.216 49.0191C634.649 55.5471 633.367 63.2991 633.367 72.2751C633.367 81.2511 634.649 89.0031 637.216 95.5311C639.783 102.059 643.402 107.136 648.075 110.763C652.841 114.299 658.429 116.067 664.845 116.067ZM737.061 22.6351L824.758 105.323L826.408 121.779L738.71 39.2271L737.061 22.6351ZM737.748 110.219V119.875H726.339V118.515C726.339 118.515 726.752 118.515 727.576 118.515C728.401 118.515 728.859 118.515 728.951 118.515C731.243 118.515 733.212 117.699 734.862 116.067C736.511 114.435 737.336 112.486 737.336 110.219H737.748ZM756.992 110.219C756.992 112.486 757.817 114.435 759.466 116.067C761.116 117.699 763.085 118.515 765.377 118.515C765.469 118.515 765.927 118.515 766.752 118.515C767.576 118.515 767.989 118.515 767.989 118.515V119.875H756.58V110.219H756.992ZM737.061 22.6351L756.855 43.4431L756.992 119.875H737.336V39.6351C737.336 34.5577 737.061 30.4778 736.511 27.3951C735.961 24.2218 735.686 22.6351 735.686 22.6351H737.061ZM825.995 24.6751V104.371C825.995 107.726 826.133 110.763 826.408 113.483C826.682 116.112 826.957 118.152 827.232 119.603C827.507 121.054 827.645 121.779 827.645 121.779H826.408L806.476 99.7471V24.6751H825.995ZM836.992 24.6751V26.0351C836.992 26.0351 836.579 26.0351 835.755 26.0351C834.93 26.0351 834.518 26.0351 834.518 26.0351C832.226 26.0351 830.256 26.8511 828.607 28.4831C826.957 30.0244 826.088 31.9738 825.995 34.3311H825.583V24.6751H836.992ZM795.342 24.6751H806.751V34.3311H806.476C806.384 31.9738 805.514 30.0244 803.865 28.4831C802.308 26.8511 800.336 26.0351 797.954 26.0351C797.954 26.0351 797.542 26.0351 796.717 26.0351C795.892 26.0351 795.435 26.0351 795.342 26.0351V24.6751Z" fill="#FBFBFB"/>
</svg>
