<svg width="41" height="101" viewBox="0 0 41 101" fill="none" xmlns="http://www.w3.org/2000/svg">
<rect x="6.79807" y="95" width="73" height="28" transform="rotate(-90 6.79807 95)" fill="url(#paint0_linear_69_1026)"/>
<path d="M6.79807 22H34.7981C34.7981 8.65416 29.1981 5.79434 24.5314 4.84106C20.7981 4.07845 24.5314 0.789648 21.7314 0.0746918C18.9314 -0.640265 20.3914 3.99164 17.0647 4.84106C13.3314 5.79434 6.79807 8.65416 6.79807 22Z" fill="url(#paint1_linear_69_1026)"/>
<path d="M6.77432 100.008L20.1641 99.9037C23.9898 99.874 32.4123 99.8086 37.1798 97.8975C44.6919 94.8862 37.7198 88.9565 34.8975 91.7646C32.0751 94.5727 30.148 92.4172 27.2788 92.4395C24.4095 92.4618 24.8954 93.3077 22.0262 93.33C19.8876 93.3466 18.0078 92.4242 14.1822 92.4539C10.9843 92.4787 8.45125 93.4353 6.7161 92.5119C3.24535 90.6647 0.0285959 93.5008 1.01412 97.2413C1.73119 99.9629 4.61579 100.024 6.77432 100.008Z" fill="#FFDC91"/>
<defs>
<linearGradient id="paint0_linear_69_1026" x1="43.2981" y1="95" x2="43.2981" y2="123" gradientUnits="userSpaceOnUse">
<stop stop-color="#FFF4DB"/>
<stop offset="1" stop-color="#FEE5A0"/>
</linearGradient>
<linearGradient id="paint1_linear_69_1026" x1="6.79807" y1="11" x2="34.7981" y2="11" gradientUnits="userSpaceOnUse">
<stop stop-color="#FFF4DB"/>
<stop offset="1" stop-color="#FEE5A0"/>
</linearGradient>
</defs>
</svg>
