<svg width="41" height="207" viewBox="0 0 41 207" fill="none" xmlns="http://www.w3.org/2000/svg">
<rect x="6.79807" y="201" width="182" height="28" transform="rotate(-90 6.79807 201)" fill="url(#paint0_linear_69_1034)"/>
<path d="M6.79807 22H34.7981C34.7981 8.65416 29.1981 5.79434 24.5314 4.84106C20.7981 4.07845 24.5314 0.789648 21.7314 0.0746918C18.9314 -0.640265 20.3914 3.99164 17.0647 4.84106C13.3314 5.79434 6.79807 8.65416 6.79807 22Z" fill="url(#paint1_linear_69_1034)"/>
<path d="M6.77434 206.008L20.1641 205.904C23.9898 205.874 32.4123 205.809 37.1798 203.897C44.692 200.886 37.7199 194.957 34.8975 197.765C32.0751 200.573 30.148 198.417 27.2788 198.439C24.4095 198.462 24.8954 199.308 22.0262 199.33C19.8876 199.347 18.0078 198.424 14.1822 198.454C10.9843 198.479 8.45126 199.435 6.71612 198.512C3.24537 196.665 0.0286112 199.501 1.01413 203.241C1.73121 205.963 4.61581 206.024 6.77434 206.008Z" fill="#FFDC91"/>
<defs>
<linearGradient id="paint0_linear_69_1034" x1="97.7981" y1="201" x2="97.7981" y2="229" gradientUnits="userSpaceOnUse">
<stop stop-color="#FFF4DB"/>
<stop offset="1" stop-color="#FEE5A0"/>
</linearGradient>
<linearGradient id="paint1_linear_69_1034" x1="6.79807" y1="11" x2="34.7981" y2="11" gradientUnits="userSpaceOnUse">
<stop stop-color="#FFF4DB"/>
<stop offset="1" stop-color="#FEE5A0"/>
</linearGradient>
</defs>
</svg>
